<svg id="visual" viewBox="0 0 900 600" width="900" height="600" xmlns="http://www.w3.org/2000/svg" xmlns:xlink="http://www.w3.org/1999/xlink" version="1.1"><rect x="0" y="0" width="900" height="600" fill="#FFF"></rect><path d="M0 378L129 444L257 434L386 439L514 443L643 428L771 430L900 416L900 601L771 601L643 601L514 601L386 601L257 601L129 601L0 601Z" fill="#b4fe98"></path><path d="M0 425L129 473L257 400L386 419L514 409L643 451L771 408L900 453L900 601L771 601L643 601L514 601L386 601L257 601L129 601L0 601Z" fill="#9af9ab"></path><path d="M0 503L129 443L257 502L386 495L514 487L643 470L771 499L900 487L900 601L771 601L643 601L514 601L386 601L257 601L129 601L0 601Z" fill="#86f3bc"></path><path d="M0 533L129 486L257 512L386 513L514 541L643 486L771 500L900 512L900 601L771 601L643 601L514 601L386 601L257 601L129 601L0 601Z" fill="#7aecca"></path><path d="M0 536L129 568L257 567L386 557L514 568L643 548L771 556L900 539L900 601L771 601L643 601L514 601L386 601L257 601L129 601L0 601Z" fill="#77e4d4"></path></svg>