<?xml version="1.0" encoding="UTF-8" standalone="no"?>
<!-- Created with Inkscape (http://www.inkscape.org/) -->

<svg
   width="1920"
   height="1080"
   viewBox="0 0 1920 1080"
   version="1.1"
   id="svg5"
   inkscape:version="1.1.1 (3bf5ae0d25, 2021-09-20)"
   sodipodi:docname="backCover.svg"
   xmlns:inkscape="http://www.inkscape.org/namespaces/inkscape"
   xmlns:sodipodi="http://sodipodi.sourceforge.net/DTD/sodipodi-0.dtd"
   xmlns="http://www.w3.org/2000/svg"
   xmlns:svg="http://www.w3.org/2000/svg">
  <sodipodi:namedview
     id="namedview7"
     pagecolor="#505050"
     bordercolor="#eeeeee"
     borderopacity="1"
     inkscape:pageshadow="0"
     inkscape:pageopacity="0"
     inkscape:pagecheckerboard="0"
     inkscape:document-units="px"
     showgrid="false"
     inkscape:zoom="0.23165113"
     inkscape:cx="1858.398"
     inkscape:cy="477.01041"
     inkscape:window-width="1920"
     inkscape:window-height="1020"
     inkscape:window-x="0"
     inkscape:window-y="28"
     inkscape:window-maximized="1"
     inkscape:current-layer="layer1" />
  <defs
     id="defs2" />
  <g
     inkscape:label="Layer 1"
     inkscape:groupmode="layer"
     id="layer1">
    <g
       id="g309"
       transform="matrix(0.67752681,0,0,0.67752681,422.9886,370.68342)">
      <rect
         fill="#f3ebe9"
         width="1600"
         height="1200"
         id="rect9"
         x="0"
         y="0"
         style="fill:none" />
      <g
         id="g21">
        <path
           d="m 785.61,234.29 h 395.25 c 11.18,0.01 21.9,4.45 29.81,12.36 7.9,7.9 12.35,18.62 12.35,29.8 V 607.46 H 743.45 V 276.45 c 0,-11.18 4.45,-21.9 12.35,-29.81 7.91,-7.9 18.63,-12.34 29.81,-12.35 z"
           fill="#998ceb"
           opacity="1"
           stroke-width="4"
           stroke="none"
           id="path11" />
        <path
           d="m 796,293.34 c 6.85,0 12.4,-5.56 12.4,-12.4 0,-6.85 -5.55,-12.4 -12.4,-12.4 -6.85,0 -12.4,5.55 -12.4,12.4 0,6.84 5.55,12.4 12.4,12.4 z"
           fill="#e8e8e8"
           opacity="1"
           stroke-width="4"
           stroke="none"
           id="path13" />
        <path
           d="m 838.51,293.34 c 6.85,0 12.4,-5.56 12.4,-12.4 0,-6.85 -5.55,-12.4 -12.4,-12.4 -6.85,0 -12.4,5.55 -12.4,12.4 0,6.84 5.55,12.4 12.4,12.4 z"
           fill="#e8e8e8"
           opacity="1"
           stroke-width="4"
           stroke="none"
           id="path15" />
        <path
           d="m 881.03,293.34 c 6.84,0 12.4,-5.56 12.4,-12.4 0,-6.85 -5.56,-12.4 -12.4,-12.4 -6.85,0 -12.4,5.55 -12.4,12.4 0,6.84 5.55,12.4 12.4,12.4 z"
           fill="#e8e8e8"
           opacity="1"
           stroke-width="4"
           stroke="none"
           id="path17" />
        <path
           d="m 742.27,326.4 h 480.64"
           stroke="#e8e8e8"
           stroke-width="4"
           stroke-linecap="round"
           stroke-linejoin="round"
           opacity="1"
           fill="none"
           id="path19" />
      </g>
      <g
         id="g31">
        <path
           d="m 888.6,422.27 h 184.21 c 18.1,0 32.8,14.7 32.8,32.8 v 20.16 c 0,18.11 -14.7,32.8 -32.8,32.8 H 888.6 c -18.11,0 -32.8,-14.69 -32.8,-32.8 v -20.16 c 0,-18.1 14.69,-32.8 32.8,-32.8 z"
           fill="#8ad3f4"
           opacity="1"
           stroke-width="4"
           stroke="none"
           id="path23" />
        <path
           d="m 901.7,481.84 c 9.25,0 16.76,-7.51 16.76,-16.77 0,-9.25 -7.51,-16.76 -16.76,-16.76 -9.26,0 -16.77,7.51 -16.77,16.76 0,9.26 7.51,16.77 16.77,16.77 z"
           stroke="#000000"
           stroke-width="4"
           stroke-linecap="round"
           stroke-linejoin="round"
           opacity="1"
           fill="none"
           id="path25" />
        <path
           d="m 913.56,476.94 5.1,5.1"
           stroke="#000000"
           stroke-width="4"
           stroke-linecap="round"
           stroke-linejoin="round"
           opacity="1"
           fill="none"
           id="path27" />
        <path
           d="m 939.6,479.62 h 132.02"
           stroke="#000000"
           stroke-width="4"
           stroke-linecap="round"
           stroke-linejoin="round"
           opacity="1"
           fill="none"
           id="path29" />
      </g>
      <g
         id="g89">
        <path
           d="M 326.25,607.94 H 264.82 V 762.2 h 61.43 z"
           fill="#ffffff"
           opacity="1"
           stroke-width="4"
           stroke="none"
           id="path33" />
        <path
           d="m 264.82,607.94 h 12.15 l 22.39,154.26 h -34.54 z"
           fill="#222222"
           opacity="0.3"
           stroke-width="4"
           stroke="none"
           id="path35" />
        <path
           d="M 593.82,637.97 H 550.14 V 762.2 h 43.68 z"
           fill="#cecece"
           opacity="1"
           stroke-width="4"
           stroke="none"
           id="path37" />
        <path
           d="m 550.14,637.97 h 4.91 l 16.93,124.23 h -21.84 z"
           fill="#222222"
           opacity="0.3"
           stroke-width="4"
           stroke="none"
           id="path39" />
        <path
           d="M 516.01,607.94 H 475.06 V 762.2 h 40.95 z"
           fill="#cecece"
           opacity="1"
           stroke-width="4"
           stroke="none"
           id="path41" />
        <path
           d="M 659.35,607.94 H 593.82 V 762.2 h 65.53 z"
           fill="#ffffff"
           opacity="1"
           stroke-width="4"
           stroke="none"
           id="path43" />
        <path
           d="M 694.16,607.94 H 659.35 V 762.2 h 34.81 z"
           fill="#cecece"
           opacity="1"
           stroke-width="4"
           stroke="none"
           id="path45" />
        <path
           d="m 659.35,607.94 h 5.6 l 14.61,154.26 h -20.21 z"
           fill="#020202"
           opacity="0.3"
           stroke-width="4"
           stroke="none"
           id="path47" />
        <path
           d="M 728.98,607.94 H 694.16 V 762.2 h 34.82 z"
           fill="#ffffff"
           opacity="1"
           stroke-width="4"
           stroke="none"
           id="path49" />
        <path
           d="m 437.38,607.58 -77.14,133.6 37.83,21.84 77.14,-133.6 z"
           fill="#cecece"
           opacity="1"
           stroke-width="4"
           stroke="none"
           id="path51" />
        <path
           d="m 468.23,625.14 6.96,4.09 -77.13,133.52 -37.82,-21.85 8.2,-14.06 z"
           fill="#222222"
           opacity="0.3"
           stroke-width="4"
           stroke="none"
           id="path53" />
        <path
           d="M 360.38,584.73 H 326.25 V 762.2 h 34.13 z"
           fill="#cecece"
           opacity="1"
           stroke-width="4"
           stroke="none"
           id="path55" />
        <path
           d="M 550.14,584.73 H 516.01 V 762.2 h 34.13 z"
           fill="#ffffff"
           opacity="1"
           stroke-width="4"
           stroke="none"
           id="path57" />
        <path
           d="m 308.5,857.49 h -43.68 v 154.26 h 43.68 z"
           fill="#ffffff"
           opacity="1"
           stroke-width="4"
           stroke="none"
           id="path59" />
        <path
           d="m 264.82,857.49 h 14.74 l 24.17,154.26 h -38.91 z"
           fill="#222222"
           opacity="0.3"
           stroke-width="4"
           stroke="none"
           id="path61" />
        <path
           d="M 352.19,857.49 H 308.5 v 154.26 h 43.69 z"
           fill="#cecece"
           opacity="1"
           stroke-width="4"
           stroke="none"
           id="path63" />
        <path
           d="m 386.32,828.82 h -34.13 v 182.93 h 34.13 z"
           fill="#ffffff"
           opacity="1"
           stroke-width="4"
           stroke="none"
           id="path65" />
        <path
           d="m 468.23,828.82 h -81.91 v 182.93 h 81.91 z"
           fill="#cecece"
           opacity="1"
           stroke-width="4"
           stroke="none"
           id="path67" />
        <path
           d="m 386.32,828.82 h 7.51 l 20.07,182.93 h -27.58 z"
           fill="#020202"
           opacity="0.3"
           stroke-width="4"
           stroke="none"
           id="path69" />
        <path
           d="m 509.18,883.43 h -40.95 v 128.32 h 40.95 z"
           fill="#ffffff"
           opacity="1"
           stroke-width="4"
           stroke="none"
           id="path71" />
        <path
           d="m 468.23,883.43 h 10.1 l 18.57,128.32 h -28.67 z"
           fill="#1a1a1a"
           opacity="0.3"
           stroke-width="4"
           stroke="none"
           id="path73" />
        <path
           d="m 619.76,857.49 h -40.95 v 154.26 h 40.95 z"
           fill="#ffffff"
           opacity="1"
           stroke-width="4"
           stroke="none"
           id="path75" />
        <path
           d="m 660.72,857.49 h -40.96 v 154.26 h 40.96 z"
           fill="#cecece"
           opacity="1"
           stroke-width="4"
           stroke="none"
           id="path77" />
        <path
           d="m 578.81,857.49 h -69.63 v 154.26 h 69.63 z"
           fill="#ffffff"
           opacity="1"
           stroke-width="4"
           stroke="none"
           id="path79" />
        <path
           d="m 728.98,857.49 h -68.26 v 154.26 h 68.26 z"
           fill="#cecece"
           opacity="1"
           stroke-width="4"
           stroke="none"
           id="path81" />
        <path
           d="M 264.82,762.2 H 728.98"
           stroke="#222222"
           stroke-width="4"
           stroke-linecap="round"
           stroke-linejoin="round"
           opacity="1"
           fill="none"
           id="path83" />
        <path
           d="m 264.82,557.43 v 452.28 H 728.98 V 557.43"
           stroke="#222222"
           stroke-width="4"
           stroke-linecap="round"
           stroke-linejoin="round"
           opacity="1"
           fill="none"
           id="path85" />
        <path
           d="m 660.72,857.49 h 5.87 l 24.3,154.26 h -30.17 z"
           fill="#020202"
           opacity="0.3"
           stroke-width="4"
           stroke="none"
           id="path87" />
      </g>
      <g
         id="g153">
        <path
           d="m 778.19,570.05 c -10.6,-11.58 -33.05,-33.75 -33.47,-34.73 -1.53,-1.39 -9.76,-78.51 -25.94,-76.41 -6.41,0 -9.34,5.29 -10.32,7.8 -0.28,0.56 -0.97,0.7 -1.39,0.42 -3.21,-2.09 -13.53,-7.95 -28.73,-7.95 -18.96,0.28 -28.45,4.33 -29.42,11.3 0,0 0,0.14 -0.14,0.14 -2.09,0.28 -12.55,4.18 -9.9,11.02 0,0.14 0,0.14 -0.14,0.14 -1.67,0.55 -12.27,5.02 -8.51,11.01 v 0.14 c -1.11,0.56 -9.62,5.86 -6.83,11.44 6.27,11.01 45.46,8.64 50.62,21.19 2.09,4.6 1.81,10.32 1.53,17.43 -3.06,33.33 11.16,53.13 32.5,84.93 0,0 0.13,0.14 0.13,0 2.38,-0.84 47.98,-17.57 49.65,-18.13 0,0 0,0 0.14,0 z"
           fill="#f3baaa"
           opacity="1"
           stroke-width="4"
           stroke="none"
           id="path91" />
        <path
           d="m 279.51,911 c 15.62,-45.18 112.4,-160.23 165.81,-189.79 v -0.14 c 34.58,-16.59 75.44,-18.13 76.42,-18.13 l 73.21,1.12 28.31,5.02 c 17.85,-2.93 76.28,-8.51 108.91,-11.3 11.99,-1.11 20.5,-1.81 22.03,-1.81 0.14,0 0.14,-0.14 0.14,-0.28 -2.09,-2.93 -26.35,-37.23 -46.02,-67.49 v -0.14 l 69.87,-58.01 h 0.14 c 30.54,30.95 63.45,64.84 77.39,81.99 14.09,17.3 20.78,41.14 17.99,63.31 -3.21,25.66 -18.68,49.51 -44.76,68.89 -11.72,8.65 -24.41,16.04 -37.37,22.31 -52.16,25.25 -107.52,32.22 -110.17,32.5 0,0 -0.14,0 -0.14,0.14 l -36.54,162.59 -0.13,0.14 -144.06,0.14 H 445.6 v -13.38 l -59.55,6.97 c -11.57,0.84 -22.87,1.25 -33.18,1.25 -34.73,0 -58.29,-5.02 -66.38,-14.22 -8.51,-9.48 -20.78,-31.65 -6.98,-71.68 z"
           fill="#b4fe98"
           opacity="1"
           stroke-width="4"
           stroke="none"
           id="path93" />
        <path
           d="m 623.12,696.95 -0.14,-10.18 c 0,-0.14 0.14,-0.14 0.14,-0.14 2.37,0.56 28.59,5.85 45.6,-9.9 21.06,-21.34 7.11,-63.04 8.65,-92.32 0.41,-7.25 0.28,-14.36 -0.42,-20.64 -4.6,-43.37 -35.84,-50.48 -87.72,-49.64 -60.52,2.09 -64.84,33.74 -66.65,55.5 -0.56,18.69 -0.42,54.8 -0.14,83.95 0.28,23.84 -0.28,38.63 -0.28,39.74 v 0.14 l 10.6,9.06 c 0,0 0,0 0.14,0 l 89.94,-5.43 c 0.14,0 0.28,0 0.28,-0.14 z"
           fill="#f3baaa"
           opacity="1"
           stroke-width="4"
           stroke="none"
           id="path95" />
        <path
           d="m 622.84,686.63 c 0.14,0 0.14,0 0,0 l 0.14,10.46 v 6.69 c 0,0.14 0,0.14 -0.14,0.14 l -6.83,0.14 h -0.14 l -23.85,-28.87 c -0.14,-0.14 0,-0.28 0.14,-0.14 13.25,6.56 29.43,11.16 30.68,11.58 z"
           fill="#764132"
           opacity="0.3"
           stroke-width="4"
           stroke="none"
           id="path97" />
        <path
           d="m 537.22,655.11 c 8.51,0 19.94,-2.23 26.91,-11.85 v -0.14 c -1.95,-1.81 -33.05,-32.91 -18.4,-51.6 3.9,-5.02 9.34,-7.53 15.89,-7.53 13.95,0 29.29,11.3 30.26,12.13 h 0.14 c 1.26,-0.41 14.92,-13.52 9.9,-34.3 0,-0.14 0.14,-0.28 0.28,-0.14 16.6,12.27 32.36,14.5 35.42,-4.04 0,-0.14 0.14,-0.14 0.28,-0.14 9.35,6.41 18.13,9.9 26.5,9.9 8.09,-0.14 12.55,-2.79 12.83,-3.49 0,0 0,0 0,-0.14 -2.09,-43.37 -38.63,-61.08 -86.6,-60.1 -101.66,0 -68.75,146 -67.91,149.77 0,0 0,0.14 0.14,0.14 0.41,0.14 6.69,1.53 14.36,1.53 z"
           fill="#231f20"
           opacity="1"
           stroke-width="4"
           stroke="none"
           id="path99" />
        <path
           d="m 594.25,708.1 20.78,26.78 c 0,0.14 0.28,0 0.28,0 l 7.95,-25.8 -0.14,-11.85 c 0,-0.14 0,-0.14 -0.14,-0.14 L 522.3,693.32 c -0.14,0 -0.14,0 -0.14,0.14 l -0.42,9.34 v 0.14 l 48.53,35.28 h 0.14 l 23.57,-30.12 c 0.13,0 0.13,0 0.27,0 z"
           fill="#ebf2e8"
           opacity="1"
           stroke-width="4"
           stroke="none"
           id="path101" />
        <path
           d="m 651.99,639.35 c -1.68,-5.3 -7.12,-8.5 -12.69,-6.97"
           stroke="#764132"
           stroke-width="4"
           stroke-linecap="round"
           stroke-linejoin="round"
           opacity="1"
           fill="none"
           id="path103" />
        <path
           d="m 649.76,606.58 0.41,3.91 c 0.28,2.65 -0.83,5.16 -2.92,6.83"
           stroke="#764132"
           stroke-width="4"
           stroke-linecap="round"
           stroke-linejoin="round"
           opacity="1"
           fill="none"
           id="path105" />
        <path
           d="m 628,595.85 c -5.72,0.13 -5.72,8.5 0,8.64 5.72,-0.14 5.72,-8.51 0,-8.64 z"
           fill="#231f20"
           opacity="1"
           stroke-width="4"
           stroke="none"
           id="path107" />
        <path
           d="m 666.07,595.85 c -5.72,0.13 -5.72,8.5 0,8.64 5.72,-0.14 5.72,-8.51 0,-8.64 z"
           fill="#231f20"
           opacity="1"
           stroke-width="4"
           stroke="none"
           id="path109" />
        <path
           d="m 594.95,757.47 c -12.13,0.28 -12.13,18.13 0,18.41 12.13,-0.28 12.13,-18.13 0,-18.41 z"
           fill="#000000"
           opacity="1"
           stroke-width="4"
           stroke="none"
           id="path111" />
        <path
           d="m 594.95,821.75 c -12.13,0.28 -12.13,18.13 0,18.41 12.13,-0.28 12.13,-18.13 0,-18.41 z"
           fill="#000000"
           opacity="1"
           stroke-width="4"
           stroke="none"
           id="path113" />
        <path
           d="m 594.95,886.18 c -12.13,0.28 -12.13,18.13 0,18.41 12.13,-0.28 12.13,-18.13 0,-18.41 z"
           fill="#000000"
           opacity="1"
           stroke-width="4"
           stroke="none"
           id="path115" />
        <path
           d="m 681.27,838.91 6,-35.7"
           stroke="#000000"
           stroke-width="4"
           stroke-linecap="round"
           stroke-linejoin="round"
           opacity="1"
           fill="none"
           id="path117" />
        <path
           d="m 754.2,695.83 19.81,26.64"
           stroke="#000000"
           stroke-width="4"
           stroke-linecap="round"
           stroke-linejoin="round"
           opacity="1"
           fill="none"
           id="path119" />
        <path
           d="m 622.98,686.63 c -16.87,-2.79 -31.1,-13.39 -31.1,-13.39"
           stroke="#764132"
           stroke-width="4"
           stroke-linecap="round"
           stroke-linejoin="round"
           opacity="1"
           fill="none"
           id="path121" />
        <path
           d="M 576.96,616.9 564.27,607"
           stroke="#764132"
           stroke-width="4"
           stroke-linecap="round"
           stroke-linejoin="round"
           opacity="1"
           fill="none"
           id="path123" />
        <path
           d="m 708.05,467.69 c 5.15,2.65 20.36,12.27 27.47,22.45"
           stroke="#764132"
           stroke-width="4"
           stroke-linecap="round"
           stroke-linejoin="round"
           opacity="1"
           fill="none"
           id="path125" />
        <path
           d="m 649.2,470.62 c 9.9,-1.4 21.05,-2.79 30.96,-1.4 12.69,1.82 25.38,9.91 25.38,9.91"
           stroke="#764132"
           stroke-width="4"
           stroke-linecap="round"
           stroke-linejoin="round"
           opacity="1"
           fill="none"
           id="path127" />
        <path
           d="m 630.37,492.93 c 11.3,0 32.77,0.28 55.22,12.97"
           stroke="#764132"
           stroke-width="4"
           stroke-linecap="round"
           stroke-linejoin="round"
           opacity="1"
           fill="none"
           id="path129" />
        <path
           d="m 638.88,481.78 c 6.97,0 32.77,-4.05 56.61,10.04"
           stroke="#764132"
           stroke-width="4"
           stroke-linecap="round"
           stroke-linejoin="round"
           opacity="1"
           fill="none"
           id="path131" />
        <path
           d="m 774.14,722.33 -19.66,-26.5 c 0,0 0,0 -0.14,0 -0.97,0 -10.6,0.84 -21.89,1.81 -0.14,0 -0.14,0.14 0,0.28 l 41.42,24.55 c 0.27,0.14 0.41,0 0.27,-0.14 z"
           fill="#000000"
           opacity="0.3"
           stroke-width="4"
           stroke="none"
           id="path133" />
        <path
           d="m 681.41,839.05 c 3.49,-0.28 58.15,-7.39 109.61,-32.22 0.14,0 0.14,-0.28 0,-0.28 -72.52,-2.64 -101.52,-3.34 -103.61,-3.48 -0.14,0 -0.14,0 -0.14,0.14 l -6,35.7 z"
           fill="#000000"
           opacity="0.3"
           stroke-width="4"
           stroke="none"
           id="path135" />
        <path
           d="m 449.37,895.24 c -3.49,0 -5.72,0.14 -6.56,0.14 -0.14,0 -0.14,-0.14 -0.14,-0.27 9.34,-12 21.34,-26.92 31.1,-44.07 0,-0.14 0.28,-0.14 0.28,0 L 482,896.5 c 0,0.14 0,0.14 -0.14,0.14 -2.93,-0.28 -5.86,-0.42 -8.51,-0.56 -10.32,-0.7 -18.69,-0.84 -23.98,-0.84 z"
           fill="#000000"
           opacity="0.3"
           stroke-width="4"
           stroke="none"
           id="path137" />
        <path
           d="m 482.14,896.78 c 24.4,1.81 55.08,6 78.23,16.31 32.49,13.81 96.36,63.18 71.67,64.43 -4.46,0 -17.01,-5.86 -23.14,-8.92 -0.7,-0.28 -1.4,0.55 -0.84,1.11 7.95,8.79 29.7,34.59 9.62,35.56 -3.62,0 -7.11,-0.84 -7.81,-0.97 -0.14,0 -0.14,0 -0.14,0.13 -3.62,15.2 -23.01,6.7 -27.19,2.24 -0.14,-0.14 -0.28,0 -0.28,0.14 0,4.74 -6,8.08 -12.27,7.8 -13.25,-0.97 -54.25,-38.76 -56.2,-40.85 h -0.14 c -0.7,0.27 -7.25,2.09 -17.43,4.46 -9.9,2.37 -23.15,5.44 -37.79,8.09 -0.14,0 -0.14,0 -0.14,-0.14 -0.14,-1.96 -1.81,-24.97 1.95,-47.14 3.49,-20.92 12.41,-41.14 12.97,-42.53 0,0 0,0 0.14,0 2.79,-0.14 5.72,0.14 8.79,0.28 z"
           fill="#f3baaa"
           opacity="1"
           stroke-width="4"
           stroke="none"
           id="path139" />
        <path
           d="m 473.77,851.18 c -10.74,17.15 -18.69,28.59 -31.38,44.2"
           stroke="#000000"
           stroke-width="4"
           stroke-linecap="round"
           stroke-linejoin="round"
           opacity="1"
           fill="none"
           id="path141" />
        <path
           d="m 578.77,941.82 c 9.91,7.39 21.2,19.38 30.27,27.89"
           stroke="#764132"
           stroke-width="4"
           stroke-linecap="round"
           stroke-linejoin="round"
           opacity="1"
           fill="none"
           id="path143" />
        <path
           d="m 559.11,953.12 c 0,0 39.33,38.62 50.62,51.31"
           stroke="#764132"
           stroke-width="4"
           stroke-linecap="round"
           stroke-linejoin="round"
           opacity="1"
           fill="none"
           id="path145" />
        <path
           d="m 539.45,965.67 42.95,40.86"
           stroke="#764132"
           stroke-width="4"
           stroke-linecap="round"
           stroke-linejoin="round"
           opacity="1"
           fill="none"
           id="path147" />
        <path
           d="m 473.35,896.36 c -29.56,-2.79 -97.06,1.81 -97.06,1.81"
           stroke="#000000"
           stroke-width="4"
           stroke-linecap="round"
           stroke-linejoin="round"
           opacity="1"
           fill="none"
           id="path149" />
        <path
           d="m 458.57,986.17 c -28.87,5.99 -72.52,9.48 -72.52,9.48"
           stroke="#000000"
           stroke-width="4"
           stroke-linecap="round"
           stroke-linejoin="round"
           opacity="1"
           fill="none"
           id="path151" />
      </g>
      <g
         id="g171">
        <path
           d="m 1191.31,917.76 c 26.23,0 53.32,-21.35 60.4,-47.58 l 49.46,-184.6 c 3.5,-13.07 1.6,-25.28 -5.36,-34.35 -6.63,-8.64 -17.13,-13.39 -29.57,-13.39 H 969.92 c -26.25,0 -53.34,21.41 -60.4,47.72 l -49.46,184.45 c -3.44,13.11 -1.48,25.34 5.53,34.42 6.63,8.6 17.07,13.33 29.4,13.33 z"
           fill="#fbf46d"
           opacity="1"
           stroke-width="4"
           stroke="none"
           id="path155" />
        <path
           d="m 1030.42,917.76 c 0.1,-0.63 0.16,-1.26 0.19,-1.89 0.03,-0.62 0.07,-1.24 0.15,-1.83 1.9,-19.06 14.3,-34.56 27.63,-34.56 2.5,0.03 4.97,0.59 7.24,1.64 2.27,1.06 4.29,2.59 5.92,4.49 5.87,6.44 8.75,17.06 7.7,28.42 l -0.44,3.68 33.16,0.05 7.4,-76.59 -114.86,-0.04 -7.55,76.63 z"
           fill="#030301"
           opacity="0.3"
           stroke-width="4"
           stroke="none"
           id="path157" />
        <path
           d="m 1156.13,976.64 -36.17,-135.48 -115.01,-0.03 36.33,135.51 z m -83.17,-97.16 c 13.27,0 28.24,15.51 33.38,34.56 3.08,11.46 1.97,22.15 -2.97,28.6 -1.38,1.88 -3.2,3.39 -5.28,4.43 -2.09,1.03 -4.4,1.55 -6.73,1.52 -13.35,0 -28.39,-15.51 -33.52,-34.57 -3.01,-11.49 -1.84,-22.19 3.13,-28.63 1.39,-1.86 3.2,-3.37 5.28,-4.4 2.09,-1.03 4.39,-1.54 6.71,-1.51 z"
           fill="#998ceb"
           opacity="1"
           stroke-width="4"
           stroke="none"
           id="path159" />
        <path
           d="m 1131.4,708.39 -7.21,27.08"
           stroke="#030301"
           stroke-width="4"
           stroke-linecap="round"
           stroke-linejoin="round"
           opacity="1"
           fill="none"
           id="path161" />
        <path
           d="m 1097.55,708.39 -7.22,27.08"
           stroke="#030301"
           stroke-width="4"
           stroke-linecap="round"
           stroke-linejoin="round"
           opacity="1"
           fill="none"
           id="path163" />
        <path
           d="m 1063.69,708.39 -7.21,27.08"
           stroke="#030301"
           stroke-width="4"
           stroke-linecap="round"
           stroke-linejoin="round"
           opacity="1"
           fill="none"
           id="path165" />
        <path
           d="m 989.05,976.64 c 0.01,-2.72 -0.51,-5.4 -1.54,-7.91 -1.04,-2.51 -2.55,-4.79 -4.47,-6.72 -1.91,-1.92 -4.19,-3.44 -6.69,-4.48 -2.51,-1.05 -5.19,-1.58 -7.91,-1.58 H 722.61 c -5.47,0 -10.72,2.18 -14.59,6.05 -3.87,3.87 -6.05,9.12 -6.06,14.6 v 0.04 z"
           fill="#fbf46d"
           opacity="1"
           stroke-width="4"
           stroke="none"
           id="path167" />
        <path
           d="m 799.16,976.64 c 0.01,-2.72 -0.52,-5.4 -1.55,-7.91 -1.03,-2.51 -2.55,-4.79 -4.46,-6.72 -1.92,-1.92 -4.19,-3.44 -6.7,-4.48 -2.5,-1.05 -5.19,-1.58 -7.9,-1.58 h -55.94 c -5.47,0 -10.72,2.18 -14.59,6.05 -3.87,3.87 -6.05,9.12 -6.06,14.6 v 0.04 z"
           fill="#998ceb"
           opacity="1"
           stroke-width="4"
           stroke="none"
           id="path169" />
      </g>
      <g
         id="g179">
        <path
           d="m 555.52,371.87 c 56.23,0 101.82,-45.59 101.82,-101.82 0,-56.23 -45.59,-101.82 -101.82,-101.82 -56.24,0 -101.82,45.59 -101.82,101.82 0,56.23 45.58,101.82 101.82,101.82 z"
           fill="#b4fe98"
           opacity="1"
           stroke-width="4"
           stroke="none"
           id="path173" />
        <path
           d="m 555.52,331.37 c 33.86,0 61.32,-27.45 61.32,-61.32 0,-33.87 -27.46,-61.32 -61.32,-61.32 -33.87,0 -61.32,27.45 -61.32,61.32 0,33.87 27.45,61.32 61.32,61.32 z"
           fill="#ffffff"
           opacity="1"
           stroke-width="4"
           stroke="none"
           id="path175" />
        <path
           d="m 576.34,237.17 -20.82,32.88 15.36,19.68"
           stroke="#213d16"
           stroke-width="4"
           stroke-linecap="round"
           stroke-linejoin="round"
           opacity="1"
           fill="none"
           id="path177" />
      </g>
      <g
         id="g199">
        <path
           d="m 1299.33,819.41 c 4.62,-17.23 29.84,-22.38 40.21,10.89 9.02,29.02 21.78,33.27 27.6,61.99 5.52,27.45 -10.37,67.14 -51.1,64.31 -42.89,-2.99 -16.71,-137.19 -16.71,-137.19 z"
           stroke="#d5d0f7"
           stroke-width="4"
           stroke-linecap="round"
           stroke-linejoin="round"
           opacity="1"
           fill="none"
           id="path181" />
        <path
           d="m 1227.01,849.33 55.08,-103.38 96.14,51.22 -55.09,103.4 z"
           fill="#b4fe98"
           opacity="1"
           stroke-width="4"
           stroke="none"
           id="path183" />
        <path
           d="m 1255.24,759.66 h 0.3 c 7.95,0 15.58,3.16 21.2,8.79 5.63,5.62 8.79,13.25 8.79,21.2 v 27.97 h -60.27 v -27.97 c 0,-7.95 3.16,-15.58 8.78,-21.2 5.62,-5.63 13.25,-8.79 21.2,-8.79 z"
           stroke="#998ceb"
           stroke-width="4"
           stroke-linecap="round"
           stroke-linejoin="round"
           opacity="1"
           fill="none"
           id="path185" />
        <path
           d="m 1195.57,976.09 c -4.78,-0.01 -9.35,-1.9 -12.72,-5.28 -3.38,-3.38 -5.28,-7.95 -5.28,-12.72 v -92.5 c -0.02,-10.22 1.98,-20.34 5.88,-29.78 3.9,-9.45 9.63,-18.03 16.85,-25.26 7.22,-7.23 15.8,-12.96 25.24,-16.87 9.44,-3.91 19.56,-5.92 29.78,-5.92 h 0.67 c 20.61,0.02 40.37,8.23 54.95,22.81 14.58,14.57 22.78,34.33 22.8,54.94 v 92.58 c -0.01,4.77 -1.9,9.34 -5.28,12.72 -3.37,3.38 -7.95,5.27 -12.72,5.28 z"
           fill="#8ad3f4"
           opacity="1"
           stroke-width="4"
           stroke="none"
           id="path187" />
        <path
           d="m 1286.65,883.24 h -62.14 c -10.11,0 -18.3,8.2 -18.3,18.3 v 39.17 c 0,10.1 8.19,18.29 18.3,18.29 h 62.14 c 10.11,0 18.3,-8.19 18.3,-18.29 v -39.17 c 0,-10.1 -8.19,-18.3 -18.3,-18.3 z"
           fill="#4e94b3"
           opacity="0.3"
           stroke-width="4"
           stroke="none"
           id="path189" />
        <path
           d="m 1286.65,875.04 h -62.14 c -10.11,0 -18.3,8.19 -18.3,18.3 v 39.16 c 0,10.11 8.19,18.3 18.3,18.3 h 62.14 c 10.11,0 18.3,-8.19 18.3,-18.3 v -39.16 c 0,-10.11 -8.19,-18.3 -18.3,-18.3 z"
           fill="#73ff3e"
           opacity="1"
           stroke-width="4"
           stroke="none"
           id="path191" />
        <path
           d="m 1206.23,903.21 -0.02,-9.87 c 0.01,-4.85 1.93,-9.51 5.36,-12.93 3.44,-3.43 8.09,-5.36 12.94,-5.37 h 62.14 c 4.85,0.01 9.5,1.94 12.93,5.37 3.43,3.42 5.36,8.08 5.37,12.93 v 9.87 z"
           fill="#b4fe98"
           opacity="1"
           stroke-width="4"
           stroke="none"
           id="path193" />
        <path
           d="M 1206.23,903.77 H 1305"
           stroke="#998ceb"
           stroke-width="4"
           stroke-linecap="round"
           stroke-linejoin="round"
           opacity="1"
           fill="none"
           id="path195" />
        <path
           d="m 1255.62,851.51 c 8.25,0 14.94,-6.69 14.94,-14.94 0,-8.25 -6.69,-14.94 -14.94,-14.94 -8.25,0 -14.95,6.69 -14.95,14.94 0,8.25 6.7,14.94 14.95,14.94 z"
           fill="#b4fe98"
           opacity="1"
           stroke-width="4"
           stroke="none"
           id="path197" />
      </g>
      <g
         id="g203">
        <path
           d="M 1455.6,975.2 H 143.74 v 46.53 H 1455.6 Z"
           fill="#cecece"
           opacity="1"
           stroke-width="4"
           stroke="none"
           id="path201" />
      </g>
    </g>
  </g>
</svg>
