<?xml version="1.0" encoding="UTF-8" standalone="no"?>
<svg
   class="icon icon-tabler icon-tabler-brand-slack"
   width="24"
   height="24"
   viewBox="0 0 24 24"
   stroke-width="2"
   stroke="currentColor"
   fill="none"
   stroke-linecap="round"
   stroke-linejoin="round"
   version="1.1"
   id="svg12"
   sodipodi:docname="brand-slack.svg"
   inkscape:version="1.1.1 (3bf5ae0d25, 2021-09-20, custom)"
   xmlns:inkscape="http://www.inkscape.org/namespaces/inkscape"
   xmlns:sodipodi="http://sodipodi.sourceforge.net/DTD/sodipodi-0.dtd"
   xmlns="http://www.w3.org/2000/svg"
   xmlns:svg="http://www.w3.org/2000/svg">
  <defs
     id="defs16" />
  <sodipodi:namedview
     id="namedview14"
     pagecolor="#ffffff"
     bordercolor="#666666"
     borderopacity="1.0"
     inkscape:pageshadow="2"
     inkscape:pageopacity="0.0"
     inkscape:pagecheckerboard="0"
     showgrid="false"
     inkscape:zoom="29.458333"
     inkscape:cx="11.983027"
     inkscape:cy="12"
     inkscape:window-width="1920"
     inkscape:window-height="1020"
     inkscape:window-x="0"
     inkscape:window-y="28"
     inkscape:window-maximized="1"
     inkscape:current-layer="svg12" />
  <path
     stroke="none"
     d="M0 0h24v24H0z"
     fill="none"
     id="path2" />
  <path
     d="M12 12v-6a2 2 0 0 1 4 0v6m0 -2a2 2 0 1 1 2 2h-6"
     id="path4"
     style="stroke:#998ceb;stroke-opacity:1" />
  <path
     d="M12 12h6a2 2 0 0 1 0 4h-6m2 0a2 2 0 1 1 -2 2v-6"
     id="path6"
     style="stroke:#fbf46d;stroke-opacity:1" />
  <path
     d="M12 12v6a2 2 0 0 1 -4 0v-6m0 2a2 2 0 1 1 -2 -2h6"
     id="path8"
     style="stroke:#77e4d4;stroke-opacity:1" />
  <path
     d="M12 12h-6a2 2 0 0 1 0 -4h6m-2 0a2 2 0 1 1 2 -2v6"
     id="path10"
     style="stroke:#b4fe98;stroke-opacity:1" />
</svg>
