<?xml version="1.0" encoding="UTF-8" standalone="no"?>
<svg
   class="icon icon-tabler icon-tabler-brand-reddit"
   width="24"
   height="24"
   viewBox="0 0 24 24"
   stroke-width="2"
   stroke="currentColor"
   fill="none"
   stroke-linecap="round"
   stroke-linejoin="round"
   version="1.1"
   id="svg16"
   sodipodi:docname="brand-reddit.svg"
   inkscape:version="1.1.1 (3bf5ae0d25, 2021-09-20, custom)"
   xmlns:inkscape="http://www.inkscape.org/namespaces/inkscape"
   xmlns:sodipodi="http://sodipodi.sourceforge.net/DTD/sodipodi-0.dtd"
   xmlns="http://www.w3.org/2000/svg"
   xmlns:svg="http://www.w3.org/2000/svg">
  <defs
     id="defs20" />
  <sodipodi:namedview
     id="namedview18"
     pagecolor="#ffffff"
     bordercolor="#666666"
     borderopacity="1.0"
     inkscape:pageshadow="2"
     inkscape:pageopacity="0.0"
     inkscape:pagecheckerboard="0"
     showgrid="false"
     inkscape:zoom="29.458333"
     inkscape:cx="11.983027"
     inkscape:cy="12"
     inkscape:window-width="1920"
     inkscape:window-height="1080"
     inkscape:window-x="0"
     inkscape:window-y="0"
     inkscape:window-maximized="1"
     inkscape:current-layer="svg16" />
  <path
     stroke="none"
     d="M0 0h24v24H0z"
     fill="none"
     id="path2" />
  <path
     d="M12 8c2.648 0 5.028 .826 6.675 2.14a2.5 2.5 0 0 1 2.326 4.36c0 3.59 -4.03 6.5 -9 6.5c-4.875 0 -8.845 -2.8 -9 -6.294l-1 -.206a2.5 2.5 0 0 1 2.326 -4.36c1.646 -1.313 4.026 -2.14 6.674 -2.14z"
     id="path4"
     style="stroke:#998ceb;stroke-opacity:1" />
  <path
     d="M12 8l1 -5l6 1"
     id="path6"
     style="stroke:#998ceb;stroke-opacity:1" />
  <circle
     cx="19"
     cy="4"
     r="1"
     id="circle8"
     style="stroke:#998ceb;stroke-opacity:1" />
  <circle
     cx="9"
     cy="13"
     r=".5"
     fill="currentColor"
     id="circle10"
     style="stroke:#b4fe98;stroke-opacity:1;fill:#b4fe98;fill-opacity:1" />
  <circle
     cx="15"
     cy="13"
     r=".5"
     fill="currentColor"
     id="circle12"
     style="fill:#b4fe98;fill-opacity:1;stroke:#b4fe98;stroke-opacity:1" />
  <path
     d="M10 17c.667 .333 1.333 .5 2 .5s1.333 -.167 2 -.5"
     id="path14"
     style="stroke:#b4fe98;stroke-opacity:1" />
</svg>
