<?xml version="1.0" encoding="UTF-8" standalone="no"?>
<svg
   width="24"
   height="24"
   viewBox="0 0 24 24"
   version="1.1"
   id="svg4"
   sodipodi:docname="bx-shield-alt-2.svg"
   inkscape:version="1.1.1 (3bf5ae0d25, 2021-09-20, custom)"
   xmlns:inkscape="http://www.inkscape.org/namespaces/inkscape"
   xmlns:sodipodi="http://sodipodi.sourceforge.net/DTD/sodipodi-0.dtd"
   xmlns="http://www.w3.org/2000/svg"
   xmlns:svg="http://www.w3.org/2000/svg">
  <defs
     id="defs8" />
  <sodipodi:namedview
     id="namedview6"
     pagecolor="#ffffff"
     bordercolor="#666666"
     borderopacity="1.0"
     inkscape:pageshadow="2"
     inkscape:pageopacity="0.0"
     inkscape:pagecheckerboard="0"
     showgrid="false"
     inkscape:zoom="29.458333"
     inkscape:cx="11.983027"
     inkscape:cy="12"
     inkscape:window-width="1920"
     inkscape:window-height="1020"
     inkscape:window-x="0"
     inkscape:window-y="28"
     inkscape:window-maximized="1"
     inkscape:current-layer="svg4" />
  <path
     d="M21.438 5.089a1.002 1.002 0 0 0-.959.015c-.684.389-1.355.577-2.053.577-2.035 0-3.952-1.629-5.722-3.39-.375-.373-1.063-.373-1.438 0C9.592 3.959 7.598 5.663 5.51 5.663c-.69 0-1.351-.184-2.018-.561-.298-.166-.658-.171-.96-.012s-.501.461-.528.801c-.011.129-.944 12.872 9.683 16.041a.99.99 0 0 0 .286.042H12c.097 0 .192-.014.285-.041 10.657-3.17 9.695-15.916 9.684-16.044a1 1 0 0 0-.531-.8zm-9.452 14.842c-6.979-2.255-7.934-9.412-8.014-12.477.505.14 1.019.209 1.537.209 2.492 0 4.65-1.567 6.476-3.283 1.893 1.788 3.983 3.301 6.442 3.301.53 0 1.057-.074 1.575-.22-.074 3.065-1.021 10.217-8.016 12.47z"
     id="path2"
     style="fill:#77e4d4;fill-opacity:1" />
</svg>
