<svg width="900" height="600" xmlns="http://www.w3.org/2000/svg"><path fill="#FFF" d="M0 0h900v600H0z"/><path d="M0 378l129 66 128-10 129 5 128 4 129-15 128 2 129-14v185H0z" fill="#b4fe98"/><path d="M0 425l129 48 128-73 129 19 128-10 129 42 128-43 129 45v148H0z" fill="#9af9ab"/><path d="M0 503l129-60 128 59 129-7 128-8 129-17 128 29 129-12v114H0z" fill="#86f3bc"/><path d="M0 533l129-47 128 26 129 1 128 28 129-55 128 14 129 12v89H0z" fill="#7aecca"/><path d="M0 536l129 32 128-1 129-10 128 11 129-20 128 8 129-17v62H0z" fill="#77e4d4"/></svg>