<svg width="1920" height="1080" xmlns="http://www.w3.org/2000/svg"><path fill="none" d="M13.223-170.462h1917.596v1438.197H13.223z"/><path d="M954.775 110.334h473.706a50.581 50.581 0 0135.727 14.813 50.52 50.52 0 0114.801 35.715v396.715H904.246V160.862a50.57 50.57 0 0114.801-35.727 50.62 50.62 0 0135.728-14.801z" fill="#998ceb"/><path d="M967.227 181.105c8.21 0 14.861-6.664 14.861-14.861 0-8.21-6.651-14.862-14.861-14.862s-14.861 6.652-14.861 14.862c0 8.197 6.651 14.861 14.86 14.861zm50.948 0c8.21 0 14.861-6.664 14.861-14.861 0-8.21-6.651-14.862-14.86-14.862-8.21 0-14.862 6.652-14.862 14.862 0 8.197 6.651 14.861 14.861 14.861zm50.96 0c8.198 0 14.862-6.664 14.862-14.861 0-8.21-6.664-14.862-14.862-14.862-8.21 0-14.861 6.652-14.861 14.862 0 8.197 6.651 14.861 14.861 14.861z" fill="#e8e8e8"/><path d="M902.832 220.727h576.046" stroke="#e8e8e8" stroke-width="4.794" stroke-linecap="round" stroke-linejoin="round" fill="none"/><path d="M1078.208 335.627h220.775c21.693 0 39.31 17.618 39.31 39.311V399.1c0 21.704-17.617 39.31-39.31 39.31h-220.775c-21.705 0-39.31-17.606-39.31-39.31v-24.162c0-21.693 17.605-39.31 39.31-39.31z" fill="#8ad3f4"/><path d="M1093.908 407.022c11.086 0 20.087-9 20.087-20.099 0-11.086-9-20.087-20.087-20.087-11.098 0-20.099 9-20.099 20.087 0 11.098 9.001 20.099 20.1 20.099zm14.214-5.872l6.113 6.111m25.096-2.9h158.226" stroke="#000" stroke-width="4.794" stroke-linecap="round" stroke-linejoin="round" fill="none"/><path d="M404.233 558.152h-73.624v184.88h73.624z" fill="#fff"/><path d="M330.609 558.152h14.562l26.834 184.88H330.61z" fill="#222" opacity=".3"/><path d="M724.915 594.143h-52.35v148.89h52.35z" fill="#cecece"/><path d="M672.564 594.143h5.885l20.29 148.89h-26.175z" fill="#222" opacity=".3"/><path d="M631.66 558.152h-49.08v184.88h49.079z" fill="#cecece"/><path d="M803.452 558.152h-78.537v184.88h78.537z" fill="#fff"/><path d="M845.172 558.152h-41.72v184.88h41.72z" fill="#cecece"/><path d="M803.452 558.152h6.712l17.51 184.88h-24.222z" fill="#020202" opacity=".3"/><path d="M886.904 558.152h-41.732v184.88h41.732z" fill="#fff"/><path d="M537.422 557.72L444.97 717.84l45.339 26.175 92.452-160.119z" fill="#cecece"/><path d="M574.395 578.766l8.342 4.902-92.44 160.024-45.327-26.187 9.827-16.851z" fill="#222" opacity=".3"/><path d="M445.137 530.335h-40.904v212.698h40.904z" fill="#cecece"/><path d="M672.564 530.335H631.66v212.698h40.904zM382.96 857.237h-52.351v184.88h52.35z" fill="#fff"/><path d="M330.609 857.237h17.666l28.968 184.88h-46.634z" fill="#222" opacity=".3"/><path d="M435.322 857.237h-52.363v184.88h52.363z" fill="#cecece"/><path d="M476.226 822.876h-40.904v219.242h40.904z" fill="#fff"/><path d="M574.395 822.876h-98.169v219.242h98.17z" fill="#cecece"/><path d="M476.226 822.876h9.001l24.054 219.242h-33.055z" fill="#020202" opacity=".3"/><path d="M623.474 888.326h-49.079v153.792h49.079z" fill="#fff"/><path d="M574.395 888.326H586.5l22.256 153.792h-34.36z" fill="#1a1a1a" opacity=".3"/><path d="M756.004 857.237h-49.079v184.88h49.079z" fill="#fff"/><path d="M805.094 857.237h-49.09v184.88h49.09z" fill="#cecece"/><path d="M706.925 857.237h-83.451v184.88h83.451z" fill="#fff"/><path d="M886.904 857.237h-81.81v184.88h81.81z" fill="#cecece"/><path d="M330.609 743.033h556.295M330.609 497.616v542.057h556.295V497.616" stroke="#222" stroke-width="4.794" stroke-linecap="round" stroke-linejoin="round" fill="none"/><path d="M805.094 857.237h7.035l29.124 184.88h-36.159z" fill="#020202" opacity=".3"/><path d="M945.882 512.741c-12.704-13.878-39.61-40.45-40.114-41.624-1.834-1.665-11.697-94.094-31.089-91.577-7.682 0-11.194 6.34-12.369 9.349-.335.67-1.162.838-1.665.503-3.848-2.505-16.216-9.528-34.433-9.528-22.724.335-34.098 5.19-35.26 13.543 0 0 0 .168-.168.168-2.505.335-15.041 5.01-11.865 13.207 0 .168 0 .168-.168.168-2.001.659-14.705 6.016-10.199 13.195v.168c-1.33.671-11.53 7.023-8.186 13.71 7.515 13.196 54.484 10.356 60.668 25.397 2.505 5.513 2.17 12.369 1.834 20.89-3.667 39.946 13.375 63.676 38.951 101.788 0 0 .156.168.156 0 2.852-1.006 57.504-21.057 59.505-21.728h.168z" fill="#f3baaa"/><path d="M348.215 921.369c18.72-54.148 134.711-192.035 198.723-227.463v-.168c41.444-19.883 90.414-21.728 91.589-21.728l87.742 1.342 33.93 6.016c21.393-3.511 91.42-10.199 130.528-13.543 14.37-1.33 24.569-2.169 26.403-2.169.168 0 .168-.168.168-.336-2.505-3.511-31.58-44.62-55.155-80.886v-.168l83.739-69.525h.167c36.603 37.094 76.045 77.71 92.752 98.265 16.887 20.734 24.905 49.306 21.561 75.877-3.847 30.753-22.388 59.338-53.645 82.564-14.046 10.367-29.255 19.224-44.787 26.739-62.514 30.262-128.863 38.615-132.039 38.951 0 0-.168 0-.168.168l-43.793 194.864-.156.167-172.655.168h-65.846v-16.036l-71.37 8.354c-13.867 1.007-27.41 1.498-39.766 1.498-41.624 0-69.86-6.017-79.557-17.043-10.199-11.361-24.904-37.932-8.365-85.908z" fill="#b4fe98"/><path d="M760.03 664.83l-.167-12.2c0-.168.168-.168.168-.168 2.84.671 34.265 7.011 54.651-11.865 25.24-25.576 8.521-75.553 10.367-110.645.492-8.69.336-17.21-.503-24.737-5.513-51.98-42.954-60.5-105.132-59.494-72.533 2.505-77.711 40.438-79.88 66.517-.671 22.4-.504 65.678-.168 100.614.336 28.572-.336 46.298-.336 47.628v.168l12.704 10.858h.168l107.793-6.508c.168 0 .336 0 .336-.167z" fill="#f3baaa"/><path d="M759.695 652.462c.168 0 .168 0 0 0l.168 12.536v8.018c0 .168 0 .168-.168.168l-8.186.168h-.167l-28.585-34.6c-.167-.169 0-.336.168-.169 15.88 7.863 35.272 13.376 36.77 13.88z" fill="#764132" opacity=".3"/><path d="M657.08 614.685c10.199 0 23.898-2.672 32.251-14.202v-.168c-2.337-2.169-39.61-39.442-22.052-61.842 4.674-6.016 11.194-9.025 19.044-9.025 16.72 0 35.104 13.543 36.267 14.538h.167c1.51-.491 17.882-16.204 11.866-41.108 0-.168.167-.336.335-.168 19.895 14.705 38.784 17.378 42.45-4.842 0-.168.169-.168.336-.168 11.206 7.682 21.73 11.865 31.76 11.865 9.697-.168 15.042-3.344 15.377-4.183v-.167c-2.504-51.98-46.298-73.205-103.79-72.03-121.839 0-82.396 174.98-81.39 179.499 0 0 0 .168.168.168.492.168 8.018 1.833 17.21 1.833z" fill="#231f20"/><path d="M725.43 678.194l24.905 32.096c0 .167.335 0 .335 0l9.528-30.922-.167-14.202c0-.168 0-.168-.168-.168l-120.665-4.518c-.168 0-.168 0-.168.168l-.503 11.194v.168l58.163 42.283h.168l28.248-36.1h.324z" fill="#ebf2e8"/><path d="M794.631 595.797c-2.013-6.352-8.533-10.187-15.209-8.353m12.537-30.922l.491 4.686c.336 3.176-.995 6.185-3.5 8.186" stroke="#764132" stroke-width="4.794" stroke-linecap="round" stroke-linejoin="round" fill="none"/><path d="M765.88 543.662c-6.856.156-6.856 10.188 0 10.355 6.855-.167 6.855-10.199 0-10.355zm45.626 0c-6.855.156-6.855 10.188 0 10.355 6.856-.167 6.856-10.199 0-10.355z" fill="#231f20"/><path d="M726.269 737.364c-14.538.335-14.538 21.728 0 22.064 14.538-.336 14.538-21.729 0-22.064zm0 77.039c-14.538.336-14.538 21.729 0 22.064 14.538-.335 14.538-21.728 0-22.064zm0 77.219c-14.538.336-14.538 21.729 0 22.065 14.538-.336 14.538-21.73 0-22.065z"/><path d="M829.723 834.97l7.191-42.787m80.216-128.695l23.742 31.928" stroke="#000" stroke-width="4.794" stroke-linecap="round" stroke-linejoin="round" fill="none"/><path d="M759.863 652.462c-20.219-3.344-37.273-16.048-37.273-16.048m-17.882-67.524l-15.209-11.864M861.82 390.063c6.171 3.176 24.4 14.706 32.922 26.906m-103.454-23.394c11.865-1.678 25.228-3.344 37.105-1.678 15.209 2.181 30.418 11.877 30.418 11.877m-90.091 16.539c13.543 0 39.275.336 66.18 15.545m-55.981-28.908c8.354 0 39.275-4.854 67.847 12.033" stroke="#764132" stroke-width="4.794" stroke-linecap="round" stroke-linejoin="round" fill="none"/><path d="M941.028 695.248l-23.563-31.76h-.167c-1.163 0-12.705 1.007-26.236 2.17-.167 0-.167.167 0 .335l49.642 29.423c.324.168.492 0 .324-.168zM829.891 835.137c4.183-.336 69.693-8.857 131.367-38.616.168 0 .168-.335 0-.335-86.915-3.164-121.671-4.003-124.176-4.17-.168 0-.168 0-.168.167l-7.19 42.786zM551.792 902.48c-4.183 0-6.856.168-7.862.168-.168 0-.168-.167-.168-.323 11.194-14.382 25.576-32.264 37.273-52.818 0-.168.336-.168.336 0l9.528 54.484c0 .168 0 .168-.168.168-3.512-.336-7.023-.504-10.2-.672-12.368-.839-22.4-1.006-28.74-1.006z" opacity=".3"/><path d="M591.067 904.326c29.243 2.17 66.013 7.191 93.758 19.548 38.94 16.551 115.487 75.72 85.896 77.219-5.345 0-20.386-7.023-27.733-10.69-.839-.336-1.678.659-1.007 1.33 9.528 10.535 35.596 41.456 11.53 42.618-4.339 0-8.521-1.006-9.36-1.162-.168 0-.168 0-.168.156-4.339 18.217-27.578 8.03-32.587 2.684-.168-.168-.336 0-.336.168 0 5.68-7.19 9.684-14.705 9.348-15.88-1.162-65.019-46.453-67.356-48.958h-.168c-.839.323-8.689 2.505-20.89 5.345-11.865 2.84-27.745 6.52-45.29 9.696-.169 0-.169 0-.169-.168-.167-2.349-2.169-29.926 2.337-56.497 4.183-25.073 14.874-49.306 15.545-50.972h.168c3.344-.168 6.855.168 10.535.335z" fill="#f3baaa"/><path d="M581.035 849.675c-12.872 20.554-22.4 34.265-37.609 52.973" stroke="#000" stroke-width="4.794" stroke-linecap="round" stroke-linejoin="round" fill="none"/><path d="M706.877 958.307c11.877 8.857 25.408 23.227 36.279 33.426m-59.841-19.883s47.137 46.286 60.668 61.495m-84.231-46.455l51.476 48.971" stroke="#764132" stroke-width="4.794" stroke-linecap="round" stroke-linejoin="round" fill="none"/><path d="M580.532 903.823c-35.428-3.344-116.326 2.17-116.326 2.17m98.612 105.467c-34.6 7.179-86.915 11.362-86.915 11.362" stroke="#000" stroke-width="4.794" stroke-linecap="round" stroke-linejoin="round" fill="none"/><path d="M1441.005 929.47c31.437 0 63.904-25.587 72.39-57.024l59.277-221.242c4.195-15.665 1.918-30.298-6.424-41.169-7.946-10.355-20.53-16.048-35.44-16.048H1175.67c-31.46 0-63.928 25.66-72.39 57.193l-59.277 221.063c-4.123 15.712-1.774 30.37 6.627 41.252 7.946 10.307 20.459 15.976 35.236 15.976z" fill="#fbf46d"/><path d="M1248.179 929.47c.12-.754.191-1.51.227-2.264a25.77 25.77 0 01.18-2.194c2.277-22.843 17.139-41.42 33.115-41.42a21.29 21.29 0 018.677 1.966 21.122 21.122 0 017.095 5.381c7.035 7.718 10.487 20.446 9.228 34.061l-.527 4.41 39.742.06 8.87-91.792-137.66-.048-9.049 91.84z" fill="#030301" opacity=".3"/><path d="M1398.842 1000.038l-43.35-162.372-137.839-.036 43.541 162.408zm-99.68-116.446c15.905 0 33.846 18.589 40.007 41.42 3.691 13.735 2.36 26.547-3.56 34.277a17.602 17.602 0 01-6.328 5.31 17.742 17.742 0 01-8.066 1.821c-16 0-34.025-18.588-40.173-41.432-3.608-13.77-2.206-26.594 3.75-34.313a17.727 17.727 0 016.329-5.273 17.667 17.667 0 018.042-1.81z" fill="#998ceb"/><path d="M1369.203 678.541l-8.641 32.456m-31.928-32.456l-8.653 32.456m-31.928-32.456l-8.641 32.456" stroke="#030301" stroke-width="4.794" stroke-linecap="round" stroke-linejoin="round" fill="none"/><path d="M1198.597 1000.038a24.691 24.691 0 00-1.846-9.48 24.928 24.928 0 00-5.357-8.054 24.682 24.682 0 00-8.018-5.369 24.515 24.515 0 00-9.48-1.894H879.269a24.74 24.74 0 00-17.486 7.251 24.81 24.81 0 00-7.263 17.498v.048z" fill="#fbf46d"/><path d="M971.014 1000.038a24.702 24.702 0 00-1.857-9.48 24.894 24.894 0 00-5.346-8.054 24.733 24.733 0 00-8.03-5.369 24.456 24.456 0 00-9.468-1.894H879.27a24.74 24.74 0 00-17.486 7.251 24.81 24.81 0 00-7.263 17.498v.048z" fill="#998ceb"/><path d="M679.012 275.223c67.392 0 122.031-54.64 122.031-122.031 0-67.392-54.64-122.031-122.03-122.031-67.404 0-122.032 54.64-122.032 122.031 0 67.392 54.628 122.031 122.031 122.031z" fill="#b4fe98"/><path d="M679.012 226.684c40.581 0 73.492-32.899 73.492-73.492S719.594 79.7 679.012 79.7c-40.593 0-73.492 32.899-73.492 73.492s32.9 73.492 73.492 73.492z" fill="#fff"/><path d="M703.965 113.785l-24.953 39.407 18.41 23.586" stroke="#213d16" stroke-width="4.794" stroke-linecap="round" stroke-linejoin="round" fill="none"/><path d="M1570.467 811.599c5.537-20.65 35.763-26.823 48.191 13.051 10.81 34.78 26.104 39.874 33.079 74.295 6.616 32.899-12.429 80.467-61.243 77.075-51.404-3.583-20.027-164.421-20.027-164.421z" stroke="#d5d0f7" stroke-width="4.794" stroke-linecap="round" stroke-linejoin="round" fill="none"/><path d="M1483.791 847.458l66.014-123.901 115.223 61.387-66.025 123.925z" fill="#b4fe98"/><path d="M1517.625 739.988h.36a35.903 35.903 0 0125.408 10.535 35.903 35.903 0 0110.534 25.408v33.522h-72.233v-33.522a35.942 35.942 0 0110.523-25.408 35.903 35.903 0 0125.408-10.535z" stroke="#998ceb" stroke-width="4.794" stroke-linecap="round" stroke-linejoin="round" fill="none"/><path d="M1446.11 999.38a21.564 21.564 0 01-15.244-6.329 21.555 21.555 0 01-6.328-15.245v-110.86a92.998 92.998 0 017.047-35.692 93.123 93.123 0 0150.445-50.493 93.27 93.27 0 0135.69-7.095h.804a93.276 93.276 0 0165.857 27.338 93.215 93.215 0 0127.326 65.845v110.957a21.606 21.606 0 01-6.328 15.245 21.585 21.585 0 01-15.245 6.328z" fill="#8ad3f4"/><path d="M1555.27 888.099h-74.475c-12.117 0-21.932 9.827-21.932 21.932v46.945c0 12.105 9.815 21.92 21.932 21.92h74.475c12.117 0 21.932-9.815 21.932-21.92v-46.945c0-12.105-9.815-21.932-21.932-21.932z" fill="#4e94b3" opacity=".3"/><path d="M1555.27 878.271h-74.475c-12.117 0-21.932 9.816-21.932 21.932v46.934c0 12.116 9.815 21.932 21.932 21.932h74.475c12.117 0 21.932-9.816 21.932-21.932v-46.934c0-12.116-9.815-21.932-21.932-21.932z" fill="#73ff3e"/><path d="M1458.887 912.033l-.024-11.83c.012-5.812 2.313-11.397 6.424-15.496a22.029 22.029 0 0115.508-6.436h74.475a21.98 21.98 0 0115.496 6.436 21.959 21.959 0 016.436 15.496v11.83z" fill="#b4fe98"/><path d="M1458.887 912.704h118.375" stroke="#998ceb" stroke-width="4.794" stroke-linecap="round" stroke-linejoin="round" fill="none"/><path d="M1518.08 850.07c9.888 0 17.906-8.018 17.906-17.905 0-9.888-8.018-17.906-17.906-17.906-9.887 0-17.917 8.018-17.917 17.906 0 9.887 8.03 17.905 17.917 17.905z" fill="#b4fe98"/><path d="M1757.756 998.313H185.495v55.766h1572.26z" fill="#cecece"/></svg>