<svg width="1920" height="1080" xmlns="http://www.w3.org/2000/svg"><path fill="none" d="M422.989 370.683H1507.03v813.033H422.99z"/><path d="M955.26 529.421h267.793a28.594 28.594 0 0120.197 8.374 28.56 28.56 0 018.367 20.19v224.269H926.696V557.986a28.588 28.588 0 018.367-20.197 28.616 28.616 0 0120.197-8.368z" fill="#998ceb"/><path d="M962.3 569.43c4.641 0 8.401-3.768 8.401-8.402a8.4 8.4 0 00-8.401-8.402 8.4 8.4 0 00-8.401 8.402c0 4.634 3.76 8.401 8.4 8.401zm28.802 0c4.64 0 8.4-3.768 8.4-8.402a8.4 8.4 0 00-8.4-8.402 8.4 8.4 0 00-8.402 8.402 8.404 8.404 0 008.402 8.401zm28.808 0c4.634 0 8.401-3.768 8.401-8.402a8.405 8.405 0 00-8.401-8.402 8.4 8.4 0 00-8.401 8.402c0 4.634 3.76 8.401 8.401 8.401z" fill="#e8e8e8"/><path d="M925.896 591.828h325.647" stroke="#e8e8e8" stroke-width="2.71" stroke-linecap="round" stroke-linejoin="round" fill="none"/><path d="M1025.039 656.783h124.807c12.263 0 22.223 9.96 22.223 22.223v13.658c0 12.27-9.96 22.223-22.223 22.223H1025.04c-12.27 0-22.223-9.953-22.223-22.223v-13.658c0-12.264 9.953-22.223 22.223-22.223z" fill="#8ad3f4"/><path d="M1033.915 697.143c6.267 0 11.355-5.088 11.355-11.362 0-6.267-5.088-11.356-11.355-11.356-6.274 0-11.363 5.089-11.363 11.356 0 6.274 5.089 11.362 11.363 11.362zm8.035-3.32l3.455 3.455m14.188-1.639h89.447" stroke="#000" stroke-width="2.71" stroke-linecap="round" stroke-linejoin="round" fill="none"/><path d="M644.032 782.58h-41.62v104.514h41.62z" fill="#fff"/><path d="M602.411 782.58h8.232l15.17 104.514h-23.402z" fill="#222" opacity=".3"/><path d="M825.318 802.925h-29.595v84.17h29.595z" fill="#cecece"/><path d="M795.723 802.925h3.327l11.47 84.17h-14.797z" fill="#222" opacity=".3"/><path d="M772.6 782.58h-27.746v104.514H772.6z" fill="#cecece"/><path d="M869.716 782.58h-44.398v104.514h44.398z" fill="#fff"/><path d="M893.3 782.58h-23.584v104.514H893.3z" fill="#cecece"/><path d="M869.716 782.58h3.794l9.899 104.514h-13.693z" fill="#020202" opacity=".3"/><path d="M916.892 782.58h-23.591v104.514h23.591z" fill="#fff"/><path d="M719.325 782.335l-52.264 90.518 25.63 14.797 52.265-90.518z" fill="#cecece"/><path d="M740.227 794.233l4.716 2.77-52.258 90.464-25.624-14.804 5.556-9.526z" fill="#222" opacity=".3"/><path d="M667.156 766.854h-23.124v120.24h23.124z" fill="#cecece"/><path d="M795.723 766.854H772.6v120.24h23.124zM632.006 951.656H602.41v104.515h29.595z" fill="#fff"/><path d="M602.411 951.656h9.987l16.376 104.515H602.41z" fill="#222" opacity=".3"/><path d="M661.607 951.656h-29.601v104.515h29.6z" fill="#cecece"/><path d="M684.73 932.231h-23.123v123.94h23.124z" fill="#fff"/><path d="M740.227 932.231h-55.496v123.94h55.496z" fill="#cecece"/><path d="M684.73 932.231h5.089l13.598 123.94H684.73z" fill="#020202" opacity=".3"/><path d="M767.972 969.23h-27.745v86.941h27.745z" fill="#fff"/><path d="M740.227 969.23h6.843l12.582 86.941h-19.425z" fill="#1a1a1a" opacity=".3"/><path d="M842.893 951.656h-27.745v104.515h27.745z" fill="#fff"/><path d="M870.644 951.656h-27.751v104.515h27.751z" fill="#cecece"/><path d="M815.148 951.656h-47.176v104.515h47.176z" fill="#fff"/><path d="M916.892 951.656h-46.248v104.515h46.248z" fill="#cecece"/><path d="M602.411 887.094h314.481M602.411 748.357v306.432h314.481V748.357" stroke="#222" stroke-width="2.71" stroke-linecap="round" stroke-linejoin="round" fill="none"/><path d="M870.644 951.656h3.977l16.464 104.515h-20.44z" fill="#020202" opacity=".3"/><path d="M950.233 756.908c-7.182-7.846-22.392-22.867-22.677-23.53-1.036-.943-6.612-53.194-17.575-51.77-4.343 0-6.328 3.583-6.992 5.284-.19.38-.657.474-.942.285-2.174-1.417-9.166-5.387-19.465-5.387-12.846.19-19.276 2.934-19.933 7.656 0 0 0 .095-.095.095-1.416.19-8.503 2.832-6.707 7.466 0 .095 0 .095-.095.095-1.131.373-8.313 3.401-5.766 7.46v.095c-.752.38-6.517 3.97-4.627 7.75 4.248 7.46 30.8 5.854 34.296 14.357 1.416 3.117 1.227 6.992 1.037 11.81-2.073 22.582 7.561 35.997 22.02 57.542 0 0 .088.095.088 0 1.612-.57 32.507-11.904 33.639-12.284h.095z" fill="#f3baaa"/><path d="M612.364 987.91c10.583-30.61 76.154-108.56 112.34-128.587v-.095c23.43-11.24 51.113-12.284 51.777-12.284l49.602.759 19.181 3.401c12.094-1.985 51.682-5.766 73.79-7.656 8.123-.752 13.889-1.226 14.925-1.226.095 0 .095-.095.095-.19-1.416-1.985-17.853-25.224-31.18-45.726v-.095l47.34-39.303h.094c20.692 20.969 42.99 43.93 52.434 55.55 9.546 11.721 14.079 27.873 12.189 42.894-2.175 17.386-12.657 33.545-30.327 46.675-7.94 5.86-16.538 10.868-25.319 15.116-35.34 17.107-72.847 21.83-74.643 22.02 0 0-.095 0-.095.094l-24.757 110.16-.088.094-97.604.095h-37.223v-9.065l-40.347 4.722c-7.84.57-15.495.847-22.48.847-23.531 0-39.494-3.401-44.975-9.635-5.765-6.422-14.079-21.443-4.729-48.565z" fill="#b4fe98"/><path d="M845.17 842.886l-.096-6.897c0-.095.095-.095.095-.095 1.606.38 19.37 3.963 30.895-6.708 14.269-14.458 4.818-42.711 5.86-62.55.279-4.911.19-9.728-.284-13.983-3.116-29.385-24.282-34.202-59.432-33.633-41.004 1.416-43.931 22.86-45.157 37.603-.38 12.663-.285 37.128-.095 56.878.19 16.153-.19 26.173-.19 26.925v.095l7.182 6.139h.095l60.936-3.68c.095 0 .19 0 .19-.094z" fill="#f3baaa"/><path d="M844.98 835.894c.094 0 .094 0 0 0l.094 7.087v4.532c0 .095 0 .095-.095.095l-4.627.095h-.095l-16.159-19.56c-.095-.095 0-.19.095-.095 8.977 4.444 19.94 7.561 20.786 7.846z" fill="#764132" opacity=".3"/><path d="M786.97 814.538c5.765 0 13.51-1.51 18.232-8.029v-.095c-1.321-1.226-22.392-22.297-12.467-34.96 2.643-3.401 6.328-5.102 10.766-5.102 9.452 0 19.845 7.656 20.502 8.219h.095c.854-.278 10.109-9.16 6.708-23.24 0-.094.094-.19.19-.094 11.246 8.313 21.924 9.824 23.997-2.738 0-.094.095-.094.19-.094 6.335 4.343 12.284 6.707 17.954 6.707 5.482-.095 8.503-1.89 8.693-2.364v-.095c-1.416-29.385-26.173-41.384-58.674-40.72-68.877 0-46.58 98.92-46.01 101.474 0 0 0 .094.094.094.278.095 4.533 1.037 9.73 1.037z" fill="#231f20"/><path d="M825.609 850.44l14.079 18.144c0 .095.19 0 .19 0l5.386-17.48-.095-8.029c0-.094 0-.094-.095-.094l-68.213-2.555c-.095 0-.095 0-.095.095l-.285 6.328v.095l32.88 23.903h.096l15.969-20.407h.183z" fill="#ebf2e8"/><path d="M864.73 803.86c-1.139-3.59-4.825-5.759-8.599-4.722m7.087-17.48l.278 2.649c.19 1.795-.562 3.496-1.978 4.627" stroke="#764132" stroke-width="2.71" stroke-linecap="round" stroke-linejoin="round" fill="none"/><path d="M848.475 774.388c-3.875.088-3.875 5.759 0 5.854 3.876-.095 3.876-5.766 0-5.854zm25.794 0c-3.876.088-3.876 5.759 0 5.854 3.875-.095 3.875-5.766 0-5.854z" fill="#231f20"/><path d="M826.083 883.89c-8.218.19-8.218 12.283 0 12.473 8.219-.19 8.219-12.284 0-12.473zm0 43.551c-8.218.19-8.218 12.284 0 12.473 8.219-.19 8.219-12.283 0-12.473zm0 43.653c-8.218.19-8.218 12.284 0 12.473 8.219-.19 8.219-12.283 0-12.473z"/><path d="M884.567 939.067l4.065-24.187m45.348-72.753l13.421 18.05" stroke="#000" stroke-width="2.71" stroke-linecap="round" stroke-linejoin="round" fill="none"/><path d="M845.074 835.894c-11.43-1.89-21.07-9.072-21.07-9.072m-10.11-38.172l-8.597-6.708m97.414-94.386c3.49 1.795 13.795 8.313 18.612 15.21m-58.484-13.225c6.708-.948 14.262-1.89 20.976-.948 8.598 1.233 17.196 6.714 17.196 6.714m-50.93 9.35c7.656 0 22.203.19 37.413 8.787m-31.647-16.342c4.722 0 22.202-2.744 38.355 6.803" stroke="#764132" stroke-width="2.71" stroke-linecap="round" stroke-linejoin="round" fill="none"/><path d="M947.49 860.081l-13.321-17.954h-.095c-.657 0-7.182.569-14.83 1.226-.096 0-.096.095 0 .19l28.062 16.633c.183.095.278 0 .183-.095zm-62.828 79.081c2.365-.19 39.398-5.007 74.264-21.83.095 0 .095-.19 0-.19-49.134-1.788-68.783-2.262-70.199-2.357-.095 0-.095 0-.095.095l-4.065 24.187zm-157.213 38.071c-2.365 0-3.876.094-4.445.094-.095 0-.095-.094-.095-.183 6.328-8.13 14.459-18.239 21.071-29.858 0-.095.19-.095.19 0l5.387 30.8c0 .095 0 .095-.095.095-1.985-.19-3.97-.285-5.766-.38a242.268 242.268 0 00-16.247-.568z" opacity=".3"/><path d="M749.651 978.276c16.532 1.226 37.319 4.065 53.003 11.05 22.013 9.357 65.287 42.807 48.559 43.653-3.022 0-11.525-3.97-15.678-6.043-.475-.19-.949.373-.57.752 5.387 5.955 20.123 23.436 6.518 24.093-2.452 0-4.817-.57-5.291-.657-.095 0-.095 0-.095.088-2.453 10.298-15.59 4.54-18.422 1.517-.095-.095-.19 0-.19.095 0 3.212-4.065 5.475-8.313 5.285-8.977-.657-36.756-26.261-38.077-27.677H771c-.474.183-4.912 1.416-11.809 3.022-6.708 1.605-15.685 3.685-25.604 5.48-.095 0-.095 0-.095-.094-.094-1.328-1.226-16.918 1.322-31.939 2.364-14.173 8.408-27.873 8.787-28.815h.095c1.89-.095 3.875.095 5.955.19z" fill="#f3baaa"/><path d="M743.98 947.38c-7.276 11.62-12.662 19.371-21.26 29.947" stroke="#000" stroke-width="2.71" stroke-linecap="round" stroke-linejoin="round" fill="none"/><path d="M815.12 1008.792c6.715 5.007 14.364 13.13 20.51 18.896m-33.83-11.24s26.648 26.166 34.297 34.764m-47.617-26.262l29.1 27.684" stroke="#764132" stroke-width="2.71" stroke-linecap="round" stroke-linejoin="round" fill="none"/><path d="M743.696 977.991c-20.028-1.89-65.76 1.227-65.76 1.227m55.746 59.622c-19.56 4.058-49.134 6.423-49.134 6.423" stroke="#000" stroke-width="2.71" stroke-linecap="round" stroke-linejoin="round" fill="none"/><path d="M1230.133 992.49c17.772 0 36.126-14.465 40.923-32.236l33.51-125.072c2.372-8.855 1.084-17.128-3.631-23.273-4.492-5.854-11.606-9.072-20.035-9.072h-200.765c-17.785 0-36.139 14.506-40.922 32.332l-33.51 124.97c-2.331 8.882-1.003 17.168 3.746 23.32 4.492 5.827 11.565 9.031 19.92 9.031z" fill="#fbf46d"/><path d="M1121.126 992.49c.068-.426.108-.853.129-1.28.02-.42.047-.84.101-1.24 1.287-12.914 9.689-23.415 18.72-23.415 1.694.02 3.368.4 4.905 1.11a11.94 11.94 0 014.011 3.043c3.978 4.363 5.929 11.559 5.217 19.255l-.298 2.494 22.467.033 5.014-51.891-77.82-.027-5.116 51.918z" fill="#030301" opacity=".3"/><path d="M1206.298 1032.383l-24.506-91.791-77.923-.02 24.615 91.811zm-56.35-65.828c8.99 0 19.133 10.508 22.616 23.415 2.086 7.764 1.334 15.007-2.013 19.377a9.95 9.95 0 01-3.577 3.002 10.03 10.03 0 01-4.56 1.03c-9.045 0-19.235-10.509-22.71-23.423-2.04-7.784-1.247-15.034 2.12-19.397a10.021 10.021 0 013.578-2.981 9.987 9.987 0 014.546-1.023z" fill="#998ceb"/><path d="M1189.542 850.637l-4.885 18.347m-18.049-18.347l-4.892 18.347m-18.049-18.347l-4.885 18.347" stroke="#030301" stroke-width="2.71" stroke-linecap="round" stroke-linejoin="round" fill="none"/><path d="M1093.096 1032.383a13.958 13.958 0 00-1.043-5.359 13.953 13.953 0 00-7.561-7.588 13.859 13.859 0 00-5.36-1.07H912.577a13.986 13.986 0 00-9.885 4.098 14.025 14.025 0 00-4.106 9.892v.027z" fill="#fbf46d"/><path d="M964.44 1032.383a13.965 13.965 0 00-1.05-5.359 14.073 14.073 0 00-3.021-4.553 13.99 13.99 0 00-4.54-3.035 13.826 13.826 0 00-5.352-1.07h-37.9a13.986 13.986 0 00-9.886 4.098 14.025 14.025 0 00-4.106 9.892v.027z" fill="#998ceb"/><path d="M799.368 622.635c38.098 0 68.986-30.888 68.986-68.985 0-38.098-30.888-68.986-68.986-68.986-38.104 0-68.985 30.888-68.985 68.986 0 38.097 30.881 68.985 68.985 68.985z" fill="#b4fe98"/><path d="M799.368 595.195c22.941 0 41.546-18.598 41.546-41.545 0-22.948-18.605-41.546-41.546-41.546-22.948 0-41.546 18.598-41.546 41.546 0 22.947 18.598 41.545 41.546 41.545z" fill="#fff"/><path d="M813.474 531.372l-14.106 22.278 10.407 13.333" stroke="#213d16" stroke-width="2.71" stroke-linecap="round" stroke-linejoin="round" fill="none"/><path d="M1303.32 925.856c3.13-11.674 20.217-15.163 27.243 7.378 6.111 19.662 14.756 22.541 18.7 42 3.74 18.598-7.026 45.489-34.622 43.572-29.06-2.026-11.321-92.95-11.321-92.95z" stroke="#d5d0f7" stroke-width="2.71" stroke-linecap="round" stroke-linejoin="round" fill="none"/><path d="M1254.32 946.127l37.319-70.042 65.137 34.702-37.325 70.057z" fill="#b4fe98"/><path d="M1273.447 885.373h.204a20.296 20.296 0 0114.363 5.956 20.296 20.296 0 015.956 14.363v18.95h-40.835v-18.95a20.318 20.318 0 015.949-14.363 20.296 20.296 0 0114.363-5.956z" stroke="#998ceb" stroke-width="2.71" stroke-linecap="round" stroke-linejoin="round" fill="none"/><path d="M1233.02 1032.01a12.19 12.19 0 01-8.619-3.577 12.186 12.186 0 01-3.577-8.618v-62.671a52.644 52.644 0 0132.501-48.721 52.726 52.726 0 0120.177-4.011h.453a52.73 52.73 0 0137.23 15.454 52.696 52.696 0 0115.448 37.224v62.725a12.214 12.214 0 01-12.195 12.196z" fill="#8ad3f4"/><path d="M1294.728 969.102h-42.101c-6.85 0-12.399 5.556-12.399 12.399v26.539c0 6.843 5.55 12.392 12.399 12.392h42.101c6.85 0 12.4-5.55 12.4-12.392V981.5c0-6.842-5.55-12.398-12.4-12.398z" fill="#4e94b3" opacity=".3"/><path d="M1294.728 963.546h-42.101c-6.85 0-12.399 5.55-12.399 12.4v26.531c0 6.85 5.55 12.399 12.399 12.399h42.101c6.85 0 12.4-5.549 12.4-12.399v-26.532c0-6.85-5.55-12.399-12.4-12.399z" fill="#73ff3e"/><path d="M1240.242 982.632l-.014-6.687a12.407 12.407 0 013.632-8.76 12.453 12.453 0 018.767-3.639h42.101a12.425 12.425 0 0112.4 12.4v6.686z" fill="#b4fe98"/><path d="M1240.242 983.012h66.92" stroke="#998ceb" stroke-width="2.71" stroke-linecap="round" stroke-linejoin="round" fill="none"/><path d="M1273.705 947.604c5.59 0 10.122-4.532 10.122-10.122s-4.533-10.122-10.122-10.122c-5.59 0-10.13 4.532-10.13 10.122s4.54 10.122 10.13 10.122z" fill="#b4fe98"/><path d="M1409.197 1031.408h-888.82v31.525h888.82z" fill="#cecece"/></svg>