<?xml version="1.0" encoding="utf-8"?><svg viewBox="0 0 24 24" xmlns="http://www.w3.org/2000/svg" xmlns:xlink="http://www.w3.org/1999/xlink"><style>:root>svg{display:none}:root>svg:target{display:block}</style><svg viewBox="0 0 24 24" id="bx-anchor" xmlns="http://www.w3.org/2000/svg"><path d="M22 15l-3-4-3 4h1.906c-.436 2.469-2.438 4.471-4.906 4.906V13h2v-2h-2V9.336c1.543-.459 2.714-1.923 2.714-3.621C15.714 3.666 14.048 2 12 2S8.286 3.666 8.286 5.715c0 1.698 1.171 3.162 2.714 3.621V11H9v2h2v6.906C8.531 19.471 6.529 17.469 6.094 15H8l-3-4-3 4h2.073c.511 3.885 3.929 7 7.927 7s7.416-3.115 7.927-7H22zM10.286 5.715C10.286 4.77 11.055 4 12 4s1.714.77 1.714 1.715c0 .951-.801 1.785-1.714 1.785s-1.714-.834-1.714-1.785z"/></svg><svg viewBox="0 0 24 24" id="bx-atom" xmlns="http://www.w3.org/2000/svg"><path d="M3.102 20.898c.698.699 1.696 1.068 2.887 1.068 1.742 0 3.855-.778 6.012-2.127 2.156 1.35 4.27 2.127 6.012 2.127 1.19 0 2.188-.369 2.887-1.068 1.269-1.269 1.411-3.413.401-6.039-.358-.932-.854-1.895-1.457-2.859a16.792 16.792 0 001.457-2.859c1.01-2.626.867-4.771-.401-6.039-.698-.699-1.696-1.068-2.887-1.068-1.742 0-3.855.778-6.012 2.127-2.156-1.35-4.27-2.127-6.012-2.127-1.19 0-2.188.369-2.887 1.068C1.833 4.371 1.69 6.515 2.7 9.141c.359.932.854 1.895 1.457 2.859A16.792 16.792 0 002.7 14.859c-1.01 2.626-.867 4.77.402 6.039zm16.331-5.321c.689 1.79.708 3.251.052 3.907-.32.32-.815.482-1.473.482-1.167 0-2.646-.503-4.208-1.38a26.611 26.611 0 004.783-4.784c.336.601.623 1.196.846 1.775zM12 17.417a23.568 23.568 0 01-2.934-2.483A23.998 23.998 0 016.566 12 23.74 23.74 0 0112 6.583a23.568 23.568 0 012.934 2.483 23.998 23.998 0 012.5 2.934A23.74 23.74 0 0112 17.417zm6.012-13.383c.657 0 1.152.162 1.473.482.656.656.638 2.117-.052 3.907-.223.579-.51 1.174-.846 1.775a26.448 26.448 0 00-4.783-4.784c1.562-.876 3.041-1.38 4.208-1.38zM4.567 8.423c-.689-1.79-.708-3.251-.052-3.907.32-.32.815-.482 1.473-.482 1.167 0 2.646.503 4.208 1.38a26.448 26.448 0 00-4.783 4.784 13.934 13.934 0 01-.846-1.775zm0 7.154c.223-.579.51-1.174.846-1.775a26.448 26.448 0 004.783 4.784c-1.563.877-3.041 1.38-4.208 1.38-.657 0-1.152-.162-1.473-.482-.656-.656-.637-2.117.052-3.907z"/><circle cx="12" cy="12" r="2.574"/></svg><svg viewBox="0 0 24 24" id="bx-badge-check" xmlns="http://www.w3.org/2000/svg"><path d="M4.035 15.479A3.976 3.976 0 004 16c0 2.378 2.138 4.284 4.521 3.964C9.214 21.198 10.534 22 12 22s2.786-.802 3.479-2.036C17.857 20.284 20 18.378 20 16c0-.173-.012-.347-.035-.521C21.198 14.786 22 13.465 22 12s-.802-2.786-2.035-3.479C19.988 8.347 20 8.173 20 8c0-2.378-2.143-4.288-4.521-3.964C14.786 2.802 13.466 2 12 2s-2.786.802-3.479 2.036C6.138 3.712 4 5.622 4 8c0 .173.012.347.035.521C2.802 9.214 2 10.535 2 12s.802 2.786 2.035 3.479zm1.442-5.403l1.102-.293-.434-1.053A1.932 1.932 0 016 8c0-1.103.897-2 2-2 .247 0 .499.05.73.145l1.054.434.293-1.102a1.99 1.99 0 013.846 0l.293 1.102 1.054-.434C15.501 6.05 15.753 6 16 6c1.103 0 2 .897 2 2 0 .247-.05.5-.145.73l-.434 1.053 1.102.293a1.993 1.993 0 010 3.848l-1.102.293.434 1.053c.095.23.145.483.145.73 0 1.103-.897 2-2 2-.247 0-.499-.05-.73-.145l-1.054-.434-.293 1.102a1.99 1.99 0 01-3.846 0l-.293-1.102-1.054.434A1.935 1.935 0 018 18c-1.103 0-2-.897-2-2 0-.247.05-.5.145-.73l.434-1.053-1.102-.293a1.993 1.993 0 010-3.848z"/><path d="M15.742 10.71l-1.408-1.42-3.331 3.299-1.296-1.296-1.414 1.414 2.704 2.704z"/></svg><svg viewBox="0 0 24 24" id="bx-home-heart" xmlns="http://www.w3.org/2000/svg"><path d="M12.223 11.641l-.223.22-.224-.22a2.224 2.224 0 00-3.125 0 2.13 2.13 0 000 3.07L12 18l3.349-3.289a2.13 2.13 0 000-3.07 2.225 2.225 0 00-3.126 0z"/><path d="M21.707 11.293l-9-9a.999.999 0 00-1.414 0l-9 9A1 1 0 003 13h1v7c0 1.103.897 2 2 2h12c1.103 0 2-.897 2-2v-7h1a1 1 0 00.707-1.707zM18.001 20H6v-9.585l6-6 6 6V15l.001 5z"/></svg><svg viewBox="0 0 24 24" id="bx-shield-alt-2" xmlns="http://www.w3.org/2000/svg"><path d="M21.438 5.089a1.002 1.002 0 00-.959.015c-.684.389-1.355.577-2.053.577-2.035 0-3.952-1.629-5.722-3.39-.375-.373-1.063-.373-1.438 0C9.592 3.959 7.598 5.663 5.51 5.663c-.69 0-1.351-.184-2.018-.561-.298-.166-.658-.171-.96-.012s-.501.461-.528.801c-.011.129-.944 12.872 9.683 16.041a.99.99 0 00.286.042H12c.097 0 .192-.014.285-.041 10.657-3.17 9.695-15.916 9.684-16.044a1 1 0 00-.531-.8zm-9.452 14.842c-6.979-2.255-7.934-9.412-8.014-12.477.505.14 1.019.209 1.537.209 2.492 0 4.65-1.567 6.476-3.283 1.893 1.788 3.983 3.301 6.442 3.301.53 0 1.057-.074 1.575-.22-.074 3.065-1.021 10.217-8.016 12.47z"/></svg><svg viewBox="0 0 24 24" id="bx-sidebar" xmlns="http://www.w3.org/2000/svg"><path d="M20 3H4c-1.103 0-2 .897-2 2v14c0 1.103.897 2 2 2h16c1.103 0 2-.897 2-2V5c0-1.103-.897-2-2-2zM4 19V7h6v12H4zm8 0V7h8V5l.002 14H12z"/><path d="M6 10h2v2H6zm0 4h2v2H6z"/></svg></svg>